<svg id="Layer_1" enable-background="new 0 0 512.002 512.002" height="512" viewBox="0 0 512.002 512.002" width="512" xmlns="http://www.w3.org/2000/svg"><g><g><path d="m386.205 252.057c.065-.272.129-.544.193-.816l17.527-2.921c9.707-1.618 16.486-9.018 16.485-17.994v-40.649c.001-8.977-6.777-16.376-16.485-17.995l-17.524-2.921c-4.465-19.176-11.973-37.298-22.388-54.04l10.329-14.46c5.719-8.009 5.28-18.034-1.067-24.38l-28.744-28.744c-6.347-6.348-16.372-6.787-24.381-1.067l-14.46 10.327c-16.736-10.414-34.861-17.922-54.041-22.388l-2.921-17.524c-1.617-9.706-9.017-16.485-17.993-16.485h-40.65c-8.976 0-16.375 6.779-17.994 16.485l-2.921 17.524c-19.179 4.465-37.304 11.974-54.041 22.388l-14.459-10.328c-8.008-5.72-18.034-5.282-24.381 1.066l-28.743 28.744c-6.348 6.346-6.787 16.372-1.067 24.381l10.328 14.459c-10.415 16.742-17.923 34.864-22.388 54.04l-17.525 2.921c-9.706 1.62-16.484 9.019-16.483 17.995v40.649c-.001 8.978 6.778 16.377 16.485 17.995l17.524 2.921c4.465 19.176 11.973 37.298 22.388 54.04l-10.329 14.46c-5.719 8.009-5.28 18.034 1.067 24.38l28.744 28.744c6.348 6.349 16.373 6.788 24.381 1.067l14.459-10.328c16.736 10.414 34.861 17.922 54.041 22.388l2.921 17.524c1.618 9.706 9.018 16.485 17.994 16.485h40.65c8.976 0 16.375-6.779 17.994-16.485l2.921-17.527c.272-.064.544-.128.816-.193 2.014 69.935 59.531 126.207 129.945 126.207 169.996-6.204 173.184-248.964 3.793-259.945zm-145.191 115.752c-4.105.791-7.285 4.052-7.972 8.175l-4.003 24.016h-37.258l-4.003-24.016c-.687-4.124-3.867-7.384-7.972-8.175-21.347-4.114-41.313-12.385-59.344-24.584-3.461-2.342-8.015-2.285-11.416.146l-19.814 14.152-26.345-26.345 14.152-19.813c2.429-3.401 2.487-7.953.146-11.415-12.2-18.038-20.472-38.004-24.585-59.346-.791-4.104-4.052-7.284-8.175-7.971l-24.015-4.003v-37.258l24.015-4.003c4.124-.687 7.384-3.867 8.175-7.971 4.113-21.341 12.385-41.308 24.585-59.346 2.341-3.462 2.283-8.014-.146-11.415l-14.151-19.814 26.345-26.345 19.814 14.152c3.401 2.43 7.955 2.487 11.416.146 18.031-12.199 37.998-20.471 59.344-24.584 4.105-.791 7.285-4.052 7.972-8.175l4.002-24.017h37.258l4.003 24.016c.687 4.124 3.867 7.384 7.972 8.175 21.347 4.114 41.313 12.385 59.344 24.584 3.46 2.341 8.014 2.284 11.416-.146l19.814-14.152 26.345 26.345-14.152 19.813c-2.429 3.401-2.487 7.953-.146 11.415 12.2 18.038 20.472 38.004 24.585 59.346.791 4.104 4.052 7.284 8.175 7.971l24.015 4.003v37.258l-24.015 4.003c-4.124.687-7.384 3.867-8.175 7.971-.809 4.197-1.794 8.391-2.943 12.527-16.513 2.186-32.46 7.521-46.976 15.762l-1.771-.475c54.388-98.812-45.891-212.569-150.789-171.018-5.133 2.038-7.642 7.852-5.604 12.985s7.849 7.641 12.985 5.604c90.312-35.26 173.825 64.381 123.385 147.058-4.216-1.13-8.432-2.261-12.648-3.391-6.638-1.843-13.812.024-18.744 4.883-5.007 4.934-6.915 11.936-5.101 18.743 1.145 4.275 2.291 8.548 3.437 12.821-82.732 50.438-182.297-33.12-147.054-123.388 2.037-5.132-.472-10.945-5.606-12.983s-10.946.471-12.984 5.605c-41.553 104.945 72.255 205.152 171.014 150.788.159.591.317 1.183.476 1.774-8.237 14.512-13.571 30.458-15.757 46.969-4.137 1.149-8.33 2.135-12.526 2.943zm141.398 124.193c-84.674 1.081-138.936-95.898-93.844-167.412 1.436-2.34 1.846-5.168 1.134-7.819-3.357-12.515-6.715-25.029-10.068-37.542 12.182 3.264 24.36 6.532 36.54 9.8l1 .268c2.651.712 5.479.301 7.819-1.134 71.534-45.102 168.501 9.174 167.418 93.841.001 60.652-49.345 109.998-109.999 109.998z"/><path d="m406.2 330.79-38.789 38.789-8.788-8.789c-11.696-11.695-30.728-11.695-42.424 0-11.696 11.696-11.696 30.728 0 42.423l30 30c11.696 11.695 30.727 11.695 42.423 0l60-60c27.04-29.177-13.273-69.451-42.422-42.423zm28.281 28.281-60 60c-3.898 3.898-10.241 3.897-14.139 0l-30-30c-3.879-3.721-3.879-10.418 0-14.139 3.721-3.879 10.418-3.878 14.139 0l15.859 15.859c3.724 3.874 10.419 3.873 14.143 0l45.859-45.86c9.693-9.025 23.161 4.459 14.139 14.14z"/><path d="m131.843 141.433c13.254-.492 13.244-19.513 0-20h-.007c-13.254.493-13.236 19.515.007 20z"/></g></g></svg>