<svg id="Layer_1" enable-background="new 0 0 512.002 512.002" height="512" viewBox="0 0 512.002 512.002" width="512" xmlns="http://www.w3.org/2000/svg"><g><g clip-rule="evenodd" fill-rule="evenodd"><path d="m210 98.889c61.365 0 111.111 49.746 111.111 111.111 0 24.078-7.66 46.366-20.674 64.563 6.306 1.691 12.612 3.383 18.918 5.075 15.706-9.633 33.796-15.755 53.181-17.268 2.081-6.465 3.786-13.099 5.092-19.875l24.242-4.04c4.41-.735 8.129-3.658 8.129-8.13v-40.651c0-4.471-3.719-7.394-8.129-8.13l-24.242-4.04c-4.432-22.993-13.467-44.347-26.121-63.056l14.286-20.001c2.599-3.639 3.162-8.336 0-11.497l-28.744-28.745c-3.162-3.162-7.859-2.599-11.497 0l-20.001 14.286c-18.706-12.656-40.062-21.69-63.056-26.121l-4.04-24.242c-.735-4.41-3.658-8.129-8.13-8.129h-40.651c-4.472 0-7.395 3.719-8.13 8.129l-4.04 24.242c-22.993 4.431-44.35 13.465-63.056 26.121l-20-14.284c-3.638-2.599-8.335-3.162-11.497 0l-28.744 28.744c-3.162 3.161-2.599 7.858 0 11.497l14.286 20.001c-12.654 18.709-21.689 40.063-26.121 63.056l-24.242 4.04c-4.41.735-8.129 3.658-8.129 8.13v40.651c0 4.471 3.719 7.395 8.129 8.13l24.242 4.04c4.432 22.993 13.467 44.347 26.121 63.056l-14.286 20.001c-2.599 3.639-3.162 8.336 0 11.497l28.744 28.744c3.162 3.162 7.859 2.599 11.497 0l20.001-14.286c18.706 12.656 40.062 21.69 63.056 26.121l4.04 24.242c.735 4.41 3.658 8.13 8.13 8.13h40.651c4.472 0 7.395-3.719 8.13-8.13l4.04-24.242c6.776-1.306 13.409-3.012 19.874-5.092 1.513-19.383 7.633-37.471 17.264-53.175-1.692-6.306-3.384-12.612-5.076-18.92-18.196 13.012-40.482 20.669-64.557 20.669-61.365 0-111.111-49.746-111.111-111.111s49.745-111.111 111.11-111.111z" fill="#8690af"/><path d="m372.536 262.37c-19.386 1.513-37.476 7.636-53.181 17.268-6.306-1.692-12.612-3.384-18.918-5.075-6.542-1.755-13.085-3.509-19.627-5.262-6.858-1.935-13.426 4.339-11.547 11.392 1.764 6.586 3.53 13.168 5.295 19.75 1.692 6.308 3.384 12.614 5.076 18.92-9.631 15.703-15.751 33.792-17.264 53.175-.244 3.123-.368 6.279-.368 9.465 0 66.274 53.726 120 120 120s120-53.726 120-120-53.726-120-120-120c-3.186-.001-6.343.123-9.466.367zm-49.675 105.491c7.809-7.81 20.472-7.81 28.281 0l15.859 15.859 45.86-45.859c7.809-7.809 20.472-7.809 28.281 0 7.81 7.81 7.81 20.472 0 28.281l-60.001 60c-7.809 7.809-20.472 7.809-28.281 0l-30-30c-7.809-7.809-7.809-20.471.001-28.281z" fill="#cbe558"/><path d="m412.861 337.861-45.86 45.859-15.859-15.859c-7.809-7.81-20.472-7.81-28.281 0-7.809 7.809-7.809 20.472 0 28.281l30 30c7.809 7.809 20.472 7.809 28.281 0l60.001-60c7.81-7.81 7.81-20.472 0-28.281s-20.473-7.809-28.282 0z" fill="#fff"/></g><g><path d="m385.794 252.057c.065-.272.129-.544.193-.816l17.527-2.921c9.707-1.618 16.486-9.018 16.485-17.994v-40.649c.001-8.977-6.777-16.376-16.485-17.995l-17.524-2.921c-4.465-19.176-11.973-37.298-22.388-54.04l10.329-14.46c5.719-8.009 5.28-18.034-1.067-24.38l-28.744-28.744c-6.347-6.348-16.372-6.787-24.381-1.067l-14.459 10.327c-16.736-10.414-34.861-17.922-54.041-22.388l-2.921-17.524c-1.617-9.706-9.017-16.485-17.993-16.485h-40.65c-8.976 0-16.375 6.779-17.994 16.485l-2.921 17.524c-19.179 4.465-37.304 11.974-54.041 22.388l-14.459-10.328c-8.008-5.72-18.034-5.282-24.381 1.066l-28.743 28.744c-6.348 6.346-6.787 16.372-1.067 24.381l10.328 14.459c-10.415 16.742-17.923 34.864-22.388 54.04l-17.525 2.921c-9.706 1.62-16.484 9.019-16.484 17.995v40.649c0 8.978 6.778 16.378 16.485 17.995l17.524 2.921c4.465 19.176 11.973 37.298 22.388 54.04l-10.329 14.46c-5.719 8.009-5.28 18.034 1.067 24.38l28.744 28.744c6.348 6.349 16.373 6.788 24.381 1.067l14.459-10.328c16.736 10.414 34.861 17.922 54.041 22.388l2.921 17.524c1.618 9.706 9.018 16.485 17.994 16.485h40.65c8.976 0 16.375-6.779 17.994-16.485l2.921-17.527c.272-.064.544-.128.816-.193 2.014 69.935 59.531 126.207 129.945 126.207 71.683 0 130-58.318 130-130 .001-70.414-56.271-127.931-126.207-129.945zm-145.19 115.752c-4.105.791-7.285 4.052-7.972 8.175l-4.003 24.016h-37.258l-4.003-24.016c-.687-4.124-3.867-7.384-7.972-8.175-21.347-4.114-41.313-12.385-59.344-24.584-3.461-2.342-8.015-2.285-11.416.146l-19.814 14.152-26.345-26.345 14.152-19.813c2.429-3.401 2.487-7.953.146-11.415-12.2-18.038-20.472-38.004-24.585-59.346-.791-4.104-4.052-7.284-8.175-7.971l-24.015-4.004v-37.258l24.015-4.003c4.124-.687 7.384-3.867 8.175-7.971 4.113-21.341 12.385-41.308 24.585-59.346 2.341-3.462 2.283-8.014-.146-11.415l-14.151-19.813 26.345-26.345 19.814 14.152c3.401 2.43 7.955 2.487 11.416.146 18.031-12.199 37.998-20.471 59.344-24.584 4.105-.791 7.285-4.052 7.972-8.175l4.002-24.017h37.258l4.003 24.016c.687 4.124 3.867 7.384 7.972 8.175 21.347 4.114 41.313 12.385 59.344 24.584 3.46 2.341 8.014 2.284 11.416-.146l19.814-14.152 26.345 26.345-14.152 19.813c-2.429 3.401-2.487 7.953-.146 11.415 12.2 18.038 20.472 38.004 24.585 59.346.791 4.104 4.052 7.284 8.175 7.971l24.015 4.004v37.258l-24.015 4.003c-4.124.687-7.384 3.867-8.175 7.971-.809 4.197-1.794 8.391-2.943 12.527-16.513 2.186-32.46 7.521-46.976 15.762l-1.771-.475c9.842-17.816 14.991-37.764 14.991-58.417 0-66.781-54.331-121.111-121.111-121.111-15.418 0-30.447 2.863-44.669 8.51-5.133 2.038-7.642 7.852-5.604 12.985s7.849 7.641 12.985 5.604c11.863-4.71 24.408-7.099 37.289-7.099 55.753 0 101.111 45.358 101.111 101.111 0 18.919-5.172 37.126-15.015 53.046-4.216-1.13-8.432-2.261-12.648-3.391-6.638-1.843-13.812.024-18.744 4.883-5.007 4.934-6.915 11.936-5.101 18.743 1.145 4.275 2.291 8.548 3.437 12.821-15.918 9.839-34.125 15.01-53.04 15.01-55.752 0-101.111-45.358-101.111-101.111 0-12.878 2.388-25.422 7.097-37.285 2.038-5.133-.472-10.946-5.605-12.984-5.134-2.038-10.946.471-12.984 5.605-5.646 14.221-8.508 29.249-8.508 44.664 0 66.781 54.33 121.111 121.111 121.111 20.648 0 40.596-5.148 58.411-14.987.159.591.317 1.183.476 1.774-8.237 14.512-13.571 30.458-15.757 46.969-4.138 1.147-8.331 2.133-12.527 2.941zm141.397 124.193c-60.654 0-110-49.346-110-110 0-20.324 5.587-40.177 16.157-57.412 1.436-2.34 1.846-5.168 1.134-7.819-3.357-12.515-6.715-25.029-10.068-37.542 12.182 3.264 24.36 6.532 36.54 9.8l1 .268c2.651.712 5.479.301 7.819-1.134 17.239-10.573 37.094-16.161 57.419-16.161 60.654 0 110 49.346 110 110s-49.346 110-110.001 110z"/><path d="m405.79 330.79-38.789 38.789-8.788-8.789c-11.696-11.695-30.728-11.695-42.424 0-11.696 11.696-11.696 30.728 0 42.423l30 30c5.848 5.848 13.53 8.771 21.211 8.771s15.364-2.924 21.212-8.771l60-60c11.696-11.696 11.696-30.728 0-42.424-11.694-11.695-30.725-11.696-42.422.001zm28.281 28.281-60 60c-3.898 3.898-10.241 3.897-14.139 0l-30-30c-1.889-1.888-2.928-4.399-2.928-7.069s1.04-5.181 2.928-7.069c1.888-1.889 4.399-2.928 7.069-2.928s5.181 1.04 7.069 2.928l15.859 15.859c1.875 1.875 4.419 2.929 7.071 2.929s5.196-1.054 7.071-2.929l45.859-45.86c3.899-3.898 10.241-3.897 14.139 0 3.9 3.898 3.9 10.241.002 14.139z"/><path d="m131.433 141.433c5.523 0 10-4.477 10-10s-4.477-10-10-10h-.007c-5.523 0-9.996 4.477-9.996 10s4.48 10 10.003 10z"/></g></g></svg>