<svg id="Capa_1" enable-background="new 0 0 512.54 512.54" height="512" viewBox="0 0 512.54 512.54" width="512" xmlns="http://www.w3.org/2000/svg"><path d="m346.36 325.19c-35.53 35.54-35.53 93.16 0 128.7 4.73 4.73 9.86 8.83 15.27 12.3v18.55c-.6 9.93-8.83 17.8-18.91 17.8h-312.95c-10.46 0-18.94-8.48-18.94-18.94v-454.66c0-10.46 8.48-18.94 18.94-18.94h222.25c2.5 0 4.96.54 7.2 1.56v88.67c0 6.74 5.47 12.21 12.22 12.21h88.66c1.02 2.24 1.56 4.69 1.56 7.2v193.24c-5.43 3.46-10.56 7.57-15.3 12.31z" fill="#eff3f3"/><path d="m360.1 112.44h-88.66c-6.75 0-12.22-5.47-12.22-12.21v-88.67c1.88.85 3.61 2.04 5.1 3.53l92.25 92.26c1.49 1.49 2.67 3.21 3.53 5.09z" fill="#f9abb2"/><path d="m475.06 453.89c-30.81 30.81-78.21 34.91-113.43 12.3-5.41-3.47-10.54-7.57-15.27-12.3-35.53-35.54-35.53-93.16 0-128.7 4.74-4.74 9.87-8.85 15.3-12.31 35.22-22.59 82.6-18.48 113.4 12.31 35.53 35.54 35.53 93.16 0 128.7z" fill="#f5737f"/><path d="m482.128 318.124c-29.812-29.812-73.777-37.048-110.468-21.721v-176.763c0-7.314-2.848-14.19-8.019-19.361l-92.25-92.261c-2.159-2.158-4.672-3.921-7.398-5.243-.006-.003-.012-.006-.018-.009-.125-.061-.25-.123-.376-.181-.239-.117-.482-.226-.731-.323-3.407-1.469-7.106-2.262-10.848-2.262h-222.25c-15.957 0-28.94 12.982-28.94 28.94v454.66c0 15.958 12.982 28.94 28.939 28.94h312.95c15.28 0 27.971-11.946 28.892-27.197.013-.201.019-.402.019-.603v-2.073c12.467 5.213 25.772 7.826 39.08 7.826 25.864 0 51.728-9.845 71.418-29.534 19.076-19.077 29.582-44.44 29.582-71.418s-10.506-52.341-29.582-71.417zm-144.61-215.685h-66.082c-1.22 0-2.213-.993-2.213-2.213v-66.089zm14.112 381.944c-.403 4.594-4.271 8.157-8.91 8.157h-312.95c-4.93 0-8.939-4.01-8.939-8.94v-454.66c0-4.93 4.01-8.94 8.939-8.94h219.454v80.226c0 12.248 9.965 22.213 22.213 22.213h80.224v185.16c-4.332 3.125-8.472 6.629-12.368 10.525-19.076 19.077-29.582 44.44-29.582 71.418s10.506 52.341 29.582 71.418c3.887 3.887 8.017 7.384 12.338 10.503v12.92zm116.355-37.566c-31.582 31.582-82.969 31.582-114.551 0-15.299-15.299-23.725-35.64-23.725-57.275s8.426-41.977 23.725-57.275c15.791-15.791 36.533-23.687 57.275-23.687s41.484 7.896 57.275 23.687c15.299 15.299 23.725 35.64 23.725 57.275s-8.425 41.976-23.724 57.275z"/><path d="m71.297 159.38h139.413c5.522 0 10-4.477 10-10s-4.478-10-10-10h-139.413c-5.522 0-10 4.477-10 10s4.477 10 10 10z"/><path d="m245.481 319.298h-174.184c-5.522 0-10 4.477-10 10s4.478 10 10 10h174.185c5.522 0 10-4.477 10-10s-4.478-10-10.001-10z"/><path d="m245.481 379.271h-174.184c-5.522 0-10 4.477-10 10s4.478 10 10 10h174.185c5.522 0 10-4.477 10-10s-4.478-10-10.001-10z"/><path d="m301.71 259.326h-230.413c-5.522 0-10 4.477-10 10s4.478 10 10 10h230.413c5.522 0 10-4.477 10-10s-4.478-10-10-10z"/><path d="m70.297 220h180.413c5.522 0 10-4.477 10-10s-4.478-10-10-10h-180.413c-5.522 0-10 4.477-10 10s4.477 10 10 10z"/><circle cx="300.477" cy="210" r="10.005"/><path d="m446.072 354.18c-3.905-3.905-10.235-3.905-14.143 0l-21.22 21.219-20.885-20.885c-3.905-3.905-10.237-3.905-14.143 0-3.905 3.905-3.905 10.237 0 14.142l20.885 20.885-21.22 21.22c-3.905 3.905-3.905 10.237 0 14.142 1.953 1.953 4.512 2.929 7.071 2.929s5.118-.977 7.071-2.929l21.22-21.219 20.885 20.885c1.953 1.953 4.512 2.929 7.071 2.929s5.119-.977 7.071-2.929c3.905-3.905 3.905-10.237 0-14.142l-20.885-20.885 21.22-21.219c3.908-3.906 3.908-10.238.002-14.143z"/></svg>