<svg height="682pt" viewBox="-21 -41 682.60936 682" width="682pt" xmlns="http://www.w3.org/2000/svg"><path d="m365.277344 61.558594h-18.75v-18.746094h18.75zm-31.242188 0h-18.75v-18.746094h18.75zm0 0"/><path d="m552.175781 86.738281c-56.597656-56.601562-131.851562-87.769531-211.890625-87.769531-79.589844 0-154.542968 30.855469-211.058594 86.890625-54.273437 53.816406-85.480468 124.824219-88.46875 200.832031-10.96875.011719-26.511718.011719-40.757812.011719l93.222656 132.683594 93.230469-132.683594h-40.082031c6.257812-101.339844 91.328125-182.253906 193.914062-182.253906l3.519532-.019531c44.28125.804687 87.179687 16.804687 121.136718 45.253906l12.035156-14.371094c-38.222656-32.027344-86.769531-49.664062-136.691406-49.664062l-9.375.050781v.203125c-52.914062 2.277344-102.449218 23.835937-140.34375 61.285156-40.09375 39.613281-62.574218 92.449219-63.292968 148.765625l-.125 9.492187h23.226562l-57.152344 81.332032-57.148437-81.335938c8.328125-.011718 11.757812-.019531 13.066406-.023437.484375.03125.597656.027343 10.136719.207031v-.417969l.121094-.003906-.113282-9.957031c1.863282-153.117188 127.734375-277.53125 281-277.53125 154.894532 0 280.914063 126.019531 280.914063 280.921875 0 151.757812-120.972657 275.796875-271.546875 280.757812v-67.984375c113.113281-4.921875 203.613281-98.476562 203.613281-212.773437 0-50.550781-18.03125-99.558594-50.773437-138.007813l-14.269532 12.15625c29.855469 35.0625 46.292969 79.753906 46.292969 125.851563 0 107.097656-87.132813 194.234375-194.230469 194.234375h-9.375v105.425781h9.375c80.039063 0 155.292969-31.167969 211.890625-87.765625 56.601563-56.601562 87.769531-131.855469 87.769531-211.894531 0-80.046875-31.167968-155.296875-87.769531-211.898438zm-502.066406 218.667969c0-.355469-.019531-1.449219.007813 0-.003907 0-.003907 0-.007813 0zm0 0"/></svg>